<svg xmlns="http://www.w3.org/2000/svg" viewBox="0 0 24 24"><path d="M12.184,2A5.7,5.7,0,0,1,17.475,5.41a10.719,10.719,0,0,1,.266,4.325l0,.053c-.011.161-.02.308-.027.455a.694.694,0,0,0,.358.081,2.529,2.529,0,0,0,.921-.269.885.885,0,0,1,.414-.093,1.232,1.232,0,0,1,.455.08.849.849,0,0,1,.654.748c.014.4-.348.749-1.082,1.042-.079.026-.186.067-.307.106-.4.121-1.016.322-1.189.723a.938.938,0,0,0,.107.775l.013.013c.054.121,1.362,3.1,4.275,3.581a.446.446,0,0,1,.375.454.558.558,0,0,1-.04.2c-.215.508-1.136.882-2.807,1.134a2.415,2.415,0,0,0-.147.509,3.661,3.661,0,0,1-.119.493.468.468,0,0,1-.5.362h-.027a2.881,2.881,0,0,1-.48-.066A5.377,5.377,0,0,0,17.455,20a4.313,4.313,0,0,0-.815.066,4,4,0,0,0-1.537.789A4.866,4.866,0,0,1,12.164,22c-.053,0-.106-.013-.16-.013h-.133a4.748,4.748,0,0,1-2.926-1.15,3.955,3.955,0,0,0-1.523-.788,5.927,5.927,0,0,0-.828-.066,5.566,5.566,0,0,0-1.135.133,2.6,2.6,0,0,1-.482.066.5.5,0,0,1-.52-.375c-.054-.171-.08-.347-.12-.506a2.408,2.408,0,0,0-.148-.509c-1.712-.2-2.632-.572-2.846-1.093a.56.56,0,0,1-.049-.2.442.442,0,0,1,.375-.454c2.912-.482,4.22-3.461,4.275-3.587l.014-.026a.891.891,0,0,0,.106-.775c-.174-.387-.789-.587-1.188-.722a2,2,0,0,1-.309-.106C3.579,11.44,3.445,11,3.5,10.692a1.055,1.055,0,0,1,1.042-.708.891.891,0,0,1,.342.067,2.437,2.437,0,0,0,.985.267.835.835,0,0,0,.415-.094l-.041-.507A10.7,10.7,0,0,1,6.516,5.4a5.61,5.61,0,0,1,5.24-3.388L12.13,2h.054Z"/></svg>